<mxfile host="app.diagrams.net" modified="2023-09-06T03:45:28.593Z" agent="Mozilla/5.0 (Windows NT 10.0; Win64; x64) AppleWebKit/537.36 (KHTML, like Gecko) Chrome/116.0.0.0 Safari/537.36" version="21.7.2" etag="UrhpaWt9oUp4FFxBOwQR" type="github">
  <diagram name="第 1 页" id="80Se61J9J1k8W5E3MEyt">
    <mxGraphModel>
      <root>
        <mxCell id="0" />
        <mxCell id="1" parent="0" />
      </root>
    </mxGraphModel>
  </diagram>
</mxfile>
